<?xml version="1.0" encoding="iso-8859-1"?>
<!-- Generator: Adobe Illustrator 19.0.0, SVG Export Plug-In . SVG Version: 6.00 Build 0)  -->
<svg version="1.1" id="Capa_1" xmlns="http://www.w3.org/2000/svg" xmlns:xlink="http://www.w3.org/1999/xlink" x="0px" y="0px"
	 viewBox="0 0 512 512" style="enable-background:new 0 0 512 512;" xml:space="preserve">
<path style="fill:#FF7700;" d="M454.555,246.197H229.667V512h214.666V359.658l20.924,0.448l1.762-0.39
	C493.082,353.941,512,330.359,512,303.642C512,271.967,486.23,246.197,454.555,246.197z"/>
<path style="fill:#FFAE33;" d="M270.305,512H33.227V355.711C13.421,346.422,0,326.143,0,303.642
	c0-31.675,25.77-57.445,57.444-57.445h188.643c31.675,0,57.444,25.769,57.444,57.445c0,22.501-13.421,42.78-33.227,52.069
	L270.305,512L270.305,512z"/>
<path style="fill:#FF9900;" d="M246.087,246.197h-94.321V512h118.539V355.712c19.806-9.289,33.227-29.568,33.227-52.069
	C303.531,271.967,277.762,246.197,246.087,246.197z"/>
<path style="fill:#FFD699;" d="M63.226,482V336.646l-17.261-8.096C36.416,324.072,30,314.061,30,303.642
	c0-15.133,12.312-27.445,27.444-27.445h188.643c15.133,0,27.444,12.311,27.444,27.445c0,10.419-6.416,20.43-15.966,24.908
	l-17.261,8.096V482H63.226z"/>
<path style="fill:#FFC978;" d="M246.087,276.197h-94.321V482h88.539V336.646l17.261-8.096c9.55-4.478,15.966-14.489,15.966-24.908
	C273.531,288.509,261.219,276.197,246.087,276.197z"/>
<path id="SVGCleanerId_0" style="fill:#FFD699;" d="M509.498,423.594c-3.68-13.401-11.133-25.186-21.434-34.143
	c4.282-12.96,4.672-26.899,0.991-40.301c-3.68-13.402-11.133-25.187-21.433-34.142c4.281-12.96,4.671-26.898,0.991-40.301
	c-3.68-13.401-11.134-25.187-21.434-34.143c4.281-12.961,4.671-26.9,0.991-40.301s-11.133-25.187-21.433-34.143
	c4.281-12.96,4.67-26.899,0.99-40.3c-3.68-13.401-11.133-25.187-21.433-34.143c4.281-12.96,4.671-26.899,0.991-40.3
	C397.08,14.226,358.557-7.7,321.401,2.502C303.404,7.444,288.409,19.1,279.178,35.32c-9.232,16.221-11.594,35.066-6.651,53.063
	L374.742,460.6c4.942,17.997,16.597,32.993,32.817,42.224c6.743,3.838,13.939,6.488,21.34,7.92
	c10.401,2.013,21.208,1.619,31.722-1.269C497.775,499.273,519.7,460.747,509.498,423.594z"/>
<g>
	<path id="SVGCleanerId_0_1_" style="fill:#FFD699;" d="M509.498,423.594c-3.68-13.401-11.133-25.186-21.434-34.143
		c4.282-12.96,4.672-26.899,0.991-40.301c-3.68-13.402-11.133-25.187-21.433-34.142c4.281-12.96,4.671-26.898,0.991-40.301
		c-3.68-13.401-11.134-25.187-21.434-34.143c4.281-12.961,4.671-26.9,0.991-40.301s-11.133-25.187-21.433-34.143
		c4.281-12.96,4.67-26.899,0.99-40.3c-3.68-13.401-11.133-25.187-21.433-34.143c4.281-12.96,4.671-26.899,0.991-40.3
		C397.08,14.226,358.557-7.7,321.401,2.502C303.404,7.444,288.409,19.1,279.178,35.32c-9.232,16.221-11.594,35.066-6.651,53.063
		L374.742,460.6c4.942,17.997,16.597,32.993,32.817,42.224c6.743,3.838,13.939,6.488,21.34,7.92
		c10.401,2.013,21.208,1.619,31.722-1.269C497.775,499.273,519.7,460.747,509.498,423.594z"/>
</g>
<g>
	<rect x="100.77" y="411.26" style="fill:#FFAE33;" width="30" height="30"/>
	<rect x="111.97" y="316.94" style="fill:#FFAE33;" width="30" height="30"/>
</g>
<rect x="176.23" y="364.1" style="fill:#FF9900;" width="30" height="30"/>
<path style="fill:#FFC978;" d="M509.498,423.594c-3.68-13.401-11.133-25.186-21.434-34.142c4.282-12.96,4.672-26.899,0.991-40.301
	c-3.68-13.402-11.133-25.187-21.433-34.142c4.281-12.96,4.671-26.898,0.991-40.301c-3.68-13.402-11.134-25.187-21.434-34.143
	c4.281-12.961,4.671-26.9,0.991-40.301s-11.133-25.187-21.433-34.143c4.281-12.96,4.67-26.899,0.99-40.3
	c-3.675-13.383-11.113-25.154-21.392-34.106v410.371c0.41,0.244,0.81,0.501,1.226,0.738c6.743,3.838,13.939,6.488,21.34,7.92
	c10.401,2.013,21.207,1.619,31.723-1.269C497.775,499.273,519.7,460.746,509.498,423.594z"/>
<g>
</g>
<g>
</g>
<g>
</g>
<g>
</g>
<g>
</g>
<g>
</g>
<g>
</g>
<g>
</g>
<g>
</g>
<g>
</g>
<g>
</g>
<g>
</g>
<g>
</g>
<g>
</g>
<g>
</g>
</svg>
