<?xml version="1.0" encoding="iso-8859-1"?>
<!-- Generator: Adobe Illustrator 19.0.0, SVG Export Plug-In . SVG Version: 6.00 Build 0)  -->
<svg version="1.1" id="Layer_1" xmlns="http://www.w3.org/2000/svg" xmlns:xlink="http://www.w3.org/1999/xlink" x="0px" y="0px"
	 viewBox="0 0 512.011 512.011" style="enable-background:new 0 0 512.011 512.011;" xml:space="preserve">
<rect x="256.005" y="299.371" style="fill:#082947;" width="213.242" height="31.986"/>
<rect x="42.763" y="299.371" style="fill:#274B6D;" width="213.242" height="31.986"/>
<path style="fill:#C1E8E6;" d="M195.393,123.414L114.745,341.38c-12.208,32.999,4.798,69.986,37.797,82.194l81.256-219.618
	L195.393,123.414z"/>
<path style="fill:#98D9D5;" d="M397.27,341.38l-80.648-217.966l-38.405,80.542l81.256,219.618
	C392.472,411.366,409.478,374.379,397.27,341.38z"/>
<rect x="172.879" y="339.208" transform="matrix(-0.347 -0.9379 0.9379 -0.347 116.9766 791.8499)" style="fill:#55A7A2;" width="322.561" height="31.987"/>
<rect x="161.854" y="193.916" transform="matrix(-0.9379 -0.347 0.347 -0.9379 221.3974 750.0356)" style="fill:#98D9D5;" width="31.987" height="322.561"/>
<g>
	<rect x="240.012" style="fill:#082947;" width="31.986" height="101.29"/>
	<path style="fill:#082947;" d="M256.008,79.966c35.334,0,63.973,28.638,63.973,63.973s-28.638,63.973-63.973,63.973L256.008,79.966
		L256.008,79.966z"/>
</g>
<path style="fill:#274B6D;" d="M256.008,79.966v127.945c-35.334,0-63.973-28.638-63.973-63.973S220.673,79.966,256.008,79.966z"/>
<circle style="fill:#C1E8E6;" cx="256.005" cy="143.939" r="15.993"/>
<g>
</g>
<g>
</g>
<g>
</g>
<g>
</g>
<g>
</g>
<g>
</g>
<g>
</g>
<g>
</g>
<g>
</g>
<g>
</g>
<g>
</g>
<g>
</g>
<g>
</g>
<g>
</g>
<g>
</g>
</svg>
