<?xml version="1.0" encoding="iso-8859-1"?>
<!-- Generator: Adobe Illustrator 19.0.0, SVG Export Plug-In . SVG Version: 6.00 Build 0)  -->
<svg version="1.1" id="Capa_1" xmlns="http://www.w3.org/2000/svg" xmlns:xlink="http://www.w3.org/1999/xlink" x="0px" y="0px"
	 viewBox="0 0 512 512" style="enable-background:new 0 0 512 512;" xml:space="preserve">
<path style="fill:#FFE7C3;" d="M341.316,42.427c-39.443-24.613-78.279-39.71-79.913-40.341L256,0l-5.404,2.086
	c-1.634,0.63-40.47,15.728-79.913,40.341c-56.027,34.961-84.435,70.981-84.435,107.059h339.502
	C425.751,113.408,397.343,77.388,341.316,42.427z"/>
<path style="fill:#FFCF87;" d="M255.836,149.486h169.915c0-36.078-28.408-72.098-84.435-107.059
	c-39.443-24.613-78.279-39.71-79.913-40.341L256,0l-0.164,0.064V149.486z"/>
<path style="fill:#FFAF37;" d="M447.433,421.161c26.073-95.741,23.886-185.379-6.621-267.111l-3.643-9.759H74.831l-3.643,9.759
	c-30.508,81.731-32.695,171.367-6.621,267.111c-15.849,10.416-26.342,28.344-26.342,48.686V512h435.55v-42.153
	C473.775,449.505,463.282,431.576,447.433,421.161z"/>
<g>
	<path style="fill:#FF9900;" d="M447.433,421.161c26.073-95.741,23.886-185.379-6.621-267.111l-3.643-9.759H255.836V512h217.939
		v-42.153C473.775,449.505,463.282,431.576,447.433,421.161z"/>
	<path style="fill:#FF9900;" d="M48.897,102.13v64.032c0,16.55,13.465,30.015,30.015,30.015h354.176
		c16.55,0,30.015-13.465,30.015-30.015V102.13C463.103,102.13,48.897,102.13,48.897,102.13z"/>
</g>
<path style="fill:#FF7700;" d="M256,102.13v94.047h177.088c16.55,0,30.015-13.465,30.015-30.015V102.13
	C463.103,102.13,256,102.13,256,102.13z"/>
<path style="fill:#FFFFFF;" d="M352.94,292.049c0,0-47.253-20.201-74.024-1.053c-17.806,12.736-22.062,39.669-22.917,56.281
	c-0.855-16.611-5.112-43.545-22.917-56.281c-26.769-19.148-74.024,1.053-74.024,1.053s-3.852,51.246,22.917,70.394
	c17.206,12.307,42.871,8.359,59.016,3.967v60.214h30.015V366.41c16.145,4.392,41.811,8.34,59.016-3.967
	C356.793,343.295,352.94,292.049,352.94,292.049z"/>
<path style="fill:#FFE7C3;" d="M352.94,292.049c0,0-47.253-20.201-74.024-1.053c-17.806,12.736-22.062,39.669-22.917,56.281v79.347
	h15.007v-60.214c16.145,4.392,41.811,8.34,59.016-3.967C356.793,343.295,352.94,292.049,352.94,292.049z"/>
<g>
</g>
<g>
</g>
<g>
</g>
<g>
</g>
<g>
</g>
<g>
</g>
<g>
</g>
<g>
</g>
<g>
</g>
<g>
</g>
<g>
</g>
<g>
</g>
<g>
</g>
<g>
</g>
<g>
</g>
</svg>
