<?xml version="1.0" encoding="iso-8859-1"?>
<!-- Generator: Adobe Illustrator 19.0.0, SVG Export Plug-In . SVG Version: 6.00 Build 0)  -->
<svg version="1.1" id="Capa_1" xmlns="http://www.w3.org/2000/svg" xmlns:xlink="http://www.w3.org/1999/xlink" x="0px" y="0px"
	 viewBox="0 0 512 512" style="enable-background:new 0 0 512 512;" xml:space="preserve">
<path style="fill:#E5E5E5;" d="M431.764,512H188.43V220.459l53.334-106.666v-75.46H378.43v75.459l53.333,106.666V512H431.764z"/>
<polygon style="fill:#CFCFCF;" points="378.43,113.793 378.43,38.333 310.097,38.333 310.097,512 431.764,512 431.764,220.459 "/>
<polygon style="fill:#C6E9F9;" points="188.43,512 431.764,512 431.764,220.459 414.368,185.667 205.826,185.667 188.43,220.459 "/>
<rect x="231.1" style="fill:#4BBAED;" width="158" height="83.33"/>
<rect x="310.1" style="fill:#0999DB;" width="79" height="83.33"/>
<polygon style="fill:#92D6F4;" points="414.368,185.667 310.097,185.667 310.097,512 431.764,512 431.764,220.459 "/>
<path style="fill:#E5E5E5;" d="M259.711,512H104.483L80.236,262.333h203.721L259.711,512z"/>
<polygon style="fill:#CFCFCF;" points="188.763,262.333 188.763,512 259.711,512 283.957,262.333 "/>
<path style="fill:#4BBAED;" d="M259.711,512l21.224-218.543c-8.654,5.527-21.316,13.11-38.762,22.402
	c-38.582,20.55-88.212,31.809-134.743,31.809l-18.912-0.053L104.483,512H259.711z"/>
<path style="fill:#0999DB;" d="M242.173,315.858c-16.203,8.63-34.358,15.614-53.409,20.821V512h70.947l21.224-218.543
	C272.281,298.984,259.618,306.566,242.173,315.858z"/>
<g>
</g>
<g>
</g>
<g>
</g>
<g>
</g>
<g>
</g>
<g>
</g>
<g>
</g>
<g>
</g>
<g>
</g>
<g>
</g>
<g>
</g>
<g>
</g>
<g>
</g>
<g>
</g>
<g>
</g>
</svg>
