<?xml version="1.0" encoding="iso-8859-1"?>
<!-- Generator: Adobe Illustrator 19.0.0, SVG Export Plug-In . SVG Version: 6.00 Build 0)  -->
<svg version="1.1" id="Capa_1" xmlns="http://www.w3.org/2000/svg" xmlns:xlink="http://www.w3.org/1999/xlink" x="0px" y="0px"
	 viewBox="0 0 512 512" style="enable-background:new 0 0 512 512;" xml:space="preserve">
<path style="fill:#FF9900;" d="M356.15,59.6h-200.4l-63,117.9V512h326.5V177.5L356.15,59.6z"/>
<polygon style="fill:#FF7700;" points="356.15,59.6 255.95,59.6 255.95,512 419.15,512 419.15,177.5 "/>
<path style="fill:#FFFFFF;" d="M255.95,187.6c-17.6,0-31.9-14.3-31.9-31.9s14.3-31.9,31.9-31.9c17.6,0,31.9,14.3,31.9,31.9
	C287.85,173.2,273.55,187.6,255.95,187.6z"/>
<rect x="240.95" style="fill:#0773A4;" width="30" height="136.9"/>
<path style="fill:#FFFFFF;" d="M270.15,375.6v19.1h-24.2v-18.1c-17.1-1-33.8-5.7-44.1-12l13.1-29.5c11.4,6.7,26.5,10.9,39.6,10.9
	c11.5,0,15.6-2.4,15.6-6.5c0-15.1-66.4-2.9-66.4-47.7c0-19.4,14.1-35.7,42.2-39.6v-18.7h24.2v18.4c12.7,1.2,25,4.5,34.8,9.9
	l-12.2,29.3c-11.9-6-23-8.9-33.5-8.9c-11.9,0-15.6,3.4-15.6,7.5c0,14.4,66.4,2.4,66.4,46.6C310.05,354.9,296.75,371,270.15,375.6z"
	/>
<g>
	<path style="fill:#FFF1AB;" d="M255.95,233.5v48.9c1-0.1,2.1-0.1,3.3-0.1c10.4,0,21.6,2.9,33.5,8.9l12.2-29.3
		c-9.7-5.5-22.1-8.7-34.8-9.9v-18.4L255.95,233.5L255.95,233.5z"/>
	<path style="fill:#FFF1AB;" d="M255.95,297.4V331c8.3,1.9,14.2,4,14.2,8.4c0,4-3.8,6.3-14.2,6.5v48.8h14.2v-19.1
		c26.6-4.7,39.9-20.8,39.9-39.2C310.05,304.3,275.15,301.8,255.95,297.4z"/>
</g>
<rect x="186.65" y="418" style="fill:#FFFFFF;" width="138.7" height="30"/>
<rect x="255.95" y="418" style="fill:#FFF1AB;" width="69.3" height="30"/>
<g>
</g>
<g>
</g>
<g>
</g>
<g>
</g>
<g>
</g>
<g>
</g>
<g>
</g>
<g>
</g>
<g>
</g>
<g>
</g>
<g>
</g>
<g>
</g>
<g>
</g>
<g>
</g>
<g>
</g>
</svg>
