<?xml version="1.0" encoding="iso-8859-1"?>
<!-- Generator: Adobe Illustrator 19.0.0, SVG Export Plug-In . SVG Version: 6.00 Build 0)  -->
<svg version="1.1" id="Capa_1" xmlns="http://www.w3.org/2000/svg" xmlns:xlink="http://www.w3.org/1999/xlink" x="0px" y="0px"
	 viewBox="0 0 512 512" style="enable-background:new 0 0 512 512;" xml:space="preserve">
<polygon style="fill:#FF9900;" points="135.878,27 90.012,90.353 90.012,461.358 139.333,512 372.667,512 421.988,461.358 
	421.988,90.353 376.122,27 "/>
<polygon style="fill:#FF4F19;" points="376.122,27 256,27 256,512 372.667,512 421.988,461.358 421.988,90.353 "/>
<rect x="106.67" style="fill:#E5E5E5;" width="298.67" height="30"/>
<path style="fill:#FFFFFF;" d="M256,388.333c-55.324,0-100.333-45.009-100.333-100.333S200.676,187.667,256,187.667
	S356.333,232.676,356.333,288S311.324,388.333,256,388.333z"/>
<path style="fill:#FFE7C3;" d="M256,388.333C256,333,256,241,256,187.667c55.324,0,100.333,45.009,100.333,100.333
	S311.324,388.333,256,388.333z"/>
<path style="fill:#00E890;" d="M256,296.14l-7.788-4.731c-0.587-0.357-14.536-8.89-28.504-22.609
	c-20.086-19.728-30.271-39.972-30.271-60.172s10.185-40.444,30.271-60.172c13.969-13.72,27.917-22.253,28.504-22.609l7.788-4.731
	l7.788,4.731c0.587,0.356,14.536,8.89,28.504,22.609c20.086,19.727,30.271,39.972,30.271,60.172s-10.185,40.444-30.271,60.172
	c-13.969,13.72-27.917,22.253-28.504,22.609L256,296.14z"/>
<path style="fill:#00C47A;" d="M256,296.14V121.116l7.788,4.731c0.587,0.356,14.536,8.89,28.504,22.609
	c20.086,19.727,30.271,39.972,30.271,60.172s-10.185,40.444-30.271,60.172c-13.969,13.72-27.917,22.253-28.504,22.609L256,296.14z"
	/>
<rect x="256" style="fill:#CFCFCF;" width="149.33" height="30"/>
<g>
</g>
<g>
</g>
<g>
</g>
<g>
</g>
<g>
</g>
<g>
</g>
<g>
</g>
<g>
</g>
<g>
</g>
<g>
</g>
<g>
</g>
<g>
</g>
<g>
</g>
<g>
</g>
<g>
</g>
</svg>
