<?xml version="1.0" encoding="iso-8859-1"?>
<!-- Generator: Adobe Illustrator 19.0.0, SVG Export Plug-In . SVG Version: 6.00 Build 0)  -->
<svg version="1.1" id="Capa_1" xmlns="http://www.w3.org/2000/svg" xmlns:xlink="http://www.w3.org/1999/xlink" x="0px" y="0px"
	 viewBox="0 0 512 512" style="enable-background:new 0 0 512 512;" xml:space="preserve">
<path style="fill:#E5E5E5;" d="M512,45v361c0,24.901-20.099,45-45,45H166c-24.901,0-45-20.099-45-45V45c0-24.901,20.099-45,45-45
	h301C491.901,0,512,20.099,512,45z"/>
<path style="fill:#C8C6CD;" d="M512,45v361c0,24.901-20.099,45-45,45H316V0h151C491.901,0,512,20.099,512,45z"/>
<path style="fill:#FF8700;" d="M407,60c-24.901,0-45,20.099-45,45s20.099,45,45,45s45-20.099,45-45S431.901,60,407,60z"/>
<path style="fill:#FF9F00;" d="M226,60c-24.901,0-45,20.099-45,45s20.099,45,45,45s45-20.099,45-45S250.901,60,226,60z"/>
<g>
	<path style="fill:#FF8700;" d="M407,181c-24.901,0-45,20.099-45,45s20.099,45,45,45s45-20.099,45-45S431.901,181,407,181z"/>
	<path style="fill:#FF8700;" d="M407,301c-24.901,0-45,20.099-45,45s20.099,45,45,45s45-20.099,45-45S431.901,301,407,301z"/>
</g>
<rect x="30" y="241" style="fill:#57555C;" width="211" height="120"/>
<rect x="136" y="241" style="fill:#3C3A41;" width="105" height="120"/>
<path style="fill:#FD3C65;" d="M226,301H45c-24.901,0-45,20.099-45,45v121c0,24.901,20.099,45,45,45h181c24.901,0,45-20.099,45-45
	V346C271,321.099,250.901,301,226,301z"/>
<path style="fill:#FD003A;" d="M271,346v121c0,24.901-20.099,45-45,45h-90V301h90C250.901,301,271,321.099,271,346z"/>
<path style="fill:#E1E4FB;" d="M181,406c0,8.401-6.599,15-15,15h-15v15c0,8.401-6.599,15-15,15s-15-6.599-15-15v-15h-15
	c-8.401,0-15-6.599-15-15s6.599-15,15-15h15v-15c0-8.401,6.599-15,15-15s15,6.599,15,15v15h15C174.401,391,181,397.599,181,406z"/>
<path style="fill:#C5C9F7;" d="M181,406c0,8.401-6.599,15-15,15h-15v15c0,8.401-6.599,15-15,15v-90c8.401,0,15,6.599,15,15v15h15
	C174.401,391,181,397.599,181,406z"/>
<polygon style="fill:#FD3C65;" points="241,242.199 211,271 60,271 30,241 60,211 211,211 "/>
<g>
	<polygon style="fill:#FD003A;" points="241,242.199 211,271 136,271 136,211 211,211 	"/>
	<path style="fill:#FD003A;" d="M60,271H15c-8.284,0-15-6.716-15-15v-30c0-8.284,6.716-15,15-15h45V271z"/>
</g>
<path style="fill:#E50027;" d="M211,211h45c8.284,0,15,6.716,15,15v30c0,8.284-6.716,15-15,15h-45V211z"/>
<g>
</g>
<g>
</g>
<g>
</g>
<g>
</g>
<g>
</g>
<g>
</g>
<g>
</g>
<g>
</g>
<g>
</g>
<g>
</g>
<g>
</g>
<g>
</g>
<g>
</g>
<g>
</g>
<g>
</g>
</svg>
