<?xml version="1.0" encoding="iso-8859-1"?>
<!-- Generator: Adobe Illustrator 19.0.0, SVG Export Plug-In . SVG Version: 6.00 Build 0)  -->
<svg version="1.1" id="Capa_1" xmlns="http://www.w3.org/2000/svg" xmlns:xlink="http://www.w3.org/1999/xlink" x="0px" y="0px"
	 viewBox="0 0 512 512" style="enable-background:new 0 0 512 512;" xml:space="preserve">
<path style="fill:#00935C;" d="M342.186,143.136h-30v-29.523c0-34.904-13.593-67.719-38.273-92.4L295.125,0
	c30.348,30.347,47.061,70.696,47.061,113.613V143.136z"/>
<path style="fill:#7985EC;" d="M418.559,167.477c-13.421-38.964-50.141-65.143-91.373-65.143c-41.231,0-77.952,26.179-91.375,65.146
	c-2.208,6.414-39.677,172.971-39.677,213.468c0,72.263,58.79,131.052,131.052,131.052s131.052-58.79,131.052-131.052
	C458.238,339.597,418.997,168.814,418.559,167.477z"/>
<path style="fill:#5663DB;" d="M418.559,167.477c-13.421-38.964-50.141-65.143-91.373-65.143c-0.054,0-0.108,0.003-0.163,0.003
	v409.661c0.054,0,0.108,0.002,0.163,0.002c72.262,0,131.052-58.79,131.052-131.052C458.238,339.597,418.997,168.814,418.559,167.477
	z"/>
<path style="fill:#00E890;" d="M438.713,191.294c-1.264-5.736-7.605-34.467-8.401-36.775C415.165,110.545,373.724,81,327.19,81
	s-87.976,29.545-103.122,73.52c-0.979,2.841-6.749,28.859-8.495,36.766l-4.938,22.368l70.225-13.795l45.396,34.046l56.689-34.014
	l60.948,14.93L438.713,191.294z"/>
<path style="fill:#00C47A;" d="M438.713,191.294c-1.264-5.736-7.605-34.467-8.401-36.775C415.165,110.545,373.724,81,327.19,81
	c0,42.666-0.935,152.904-0.935,152.904l56.689-34.014l60.948,14.93L438.713,191.294z"/>
<circle style="fill:#FFFFFF;" cx="171.38" cy="394.38" r="102.62"/>
<path style="fill:#FFF1AB;" d="M273.994,394.384c0,56.673-45.943,102.616-102.616,102.616c0-34,0-166.333,0-205.232
	C228.052,291.768,273.994,337.711,273.994,394.384z"/>
<path style="fill:#7985EC;" d="M171.378,512c-64.854,0-117.616-52.762-117.616-117.616c0-64.853,52.763-117.616,117.616-117.616
	s117.616,52.762,117.616,117.616C288.995,459.238,236.232,512,171.378,512z M171.378,306.768c-48.312,0-87.616,39.304-87.616,87.616
	S123.067,482,171.378,482s87.616-39.305,87.616-87.616S219.69,306.768,171.378,306.768z"/>
<g>
	<rect x="156.38" y="337.18" style="fill:#FFC266;" width="30" height="30"/>
	<rect x="114.17" y="379.38" style="fill:#FFC266;" width="30" height="30"/>
	<rect x="156.38" y="421.59" style="fill:#FFC266;" width="30" height="30"/>
	<rect x="198.58" y="379.38" style="fill:#FFC266;" width="30" height="30"/>
</g>
<path style="fill:#5663DB;" d="M171.378,276.768v30c48.311,0,87.616,39.304,87.616,87.616S219.69,482,171.378,482v30
	c64.854,0,117.616-52.762,117.616-117.616C288.995,329.53,236.232,276.768,171.378,276.768z"/>
<g>
</g>
<g>
</g>
<g>
</g>
<g>
</g>
<g>
</g>
<g>
</g>
<g>
</g>
<g>
</g>
<g>
</g>
<g>
</g>
<g>
</g>
<g>
</g>
<g>
</g>
<g>
</g>
<g>
</g>
</svg>
